<mxfile host="app.diagrams.net" modified="2023-04-06T14:20:40.515Z" agent="Mozilla/5.0 (Windows NT 10.0; Win64; x64) AppleWebKit/537.36 (KHTML, like Gecko) Chrome/100.0.4896.75 Safari/537.36" etag="zkTVXOj_uRQtXnRFKpzW" version="21.1.4" type="github">
  <diagram name="第 1 页" id="imaV3HaFZN0mPeTBNE9h">
    <mxGraphModel dx="819" dy="455" grid="1" gridSize="10" guides="1" tooltips="1" connect="1" arrows="1" fold="1" page="1" pageScale="1" pageWidth="827" pageHeight="1169" math="0" shadow="0">
      <root>
        <mxCell id="0" />
        <mxCell id="1" parent="0" />
        <mxCell id="Rez2ODJQ1QlfnCWUfKwL-3" value="" style="rounded=0;whiteSpace=wrap;html=1;" vertex="1" parent="1">
          <mxGeometry x="100" y="290" width="130" height="250" as="geometry" />
        </mxCell>
        <mxCell id="Rez2ODJQ1QlfnCWUfKwL-4" value="授权平台" style="text;html=1;strokeColor=none;fillColor=none;align=center;verticalAlign=middle;whiteSpace=wrap;rounded=0;" vertex="1" parent="1">
          <mxGeometry x="110" y="290" width="60" height="30" as="geometry" />
        </mxCell>
        <mxCell id="Rez2ODJQ1QlfnCWUfKwL-6" value="用户认证" style="rounded=0;whiteSpace=wrap;html=1;" vertex="1" parent="1">
          <mxGeometry x="110" y="330" width="110" height="30" as="geometry" />
        </mxCell>
        <mxCell id="Rez2ODJQ1QlfnCWUfKwL-7" value="用户权限管理" style="rounded=0;whiteSpace=wrap;html=1;" vertex="1" parent="1">
          <mxGeometry x="110" y="380" width="110" height="30" as="geometry" />
        </mxCell>
        <mxCell id="Rez2ODJQ1QlfnCWUfKwL-28" style="edgeStyle=orthogonalEdgeStyle;rounded=0;orthogonalLoop=1;jettySize=auto;html=1;entryX=1;entryY=0.5;entryDx=0;entryDy=0;" edge="1" parent="1" source="Rez2ODJQ1QlfnCWUfKwL-8" target="Rez2ODJQ1QlfnCWUfKwL-17">
          <mxGeometry relative="1" as="geometry" />
        </mxCell>
        <mxCell id="Rez2ODJQ1QlfnCWUfKwL-8" value="" style="rounded=0;whiteSpace=wrap;html=1;" vertex="1" parent="1">
          <mxGeometry x="335" y="290" width="300" height="110" as="geometry" />
        </mxCell>
        <mxCell id="Rez2ODJQ1QlfnCWUfKwL-9" value="内部应用" style="text;html=1;strokeColor=none;fillColor=none;align=center;verticalAlign=middle;whiteSpace=wrap;rounded=0;" vertex="1" parent="1">
          <mxGeometry x="335" y="290" width="60" height="30" as="geometry" />
        </mxCell>
        <mxCell id="Rez2ODJQ1QlfnCWUfKwL-10" value="巡线" style="rounded=0;whiteSpace=wrap;html=1;" vertex="1" parent="1">
          <mxGeometry x="355" y="335" width="70" height="35" as="geometry" />
        </mxCell>
        <mxCell id="Rez2ODJQ1QlfnCWUfKwL-29" style="edgeStyle=orthogonalEdgeStyle;rounded=0;orthogonalLoop=1;jettySize=auto;html=1;" edge="1" parent="1" source="Rez2ODJQ1QlfnCWUfKwL-12" target="Rez2ODJQ1QlfnCWUfKwL-15">
          <mxGeometry relative="1" as="geometry">
            <Array as="points">
              <mxPoint x="310" y="512" />
              <mxPoint x="310" y="512" />
            </Array>
          </mxGeometry>
        </mxCell>
        <mxCell id="Rez2ODJQ1QlfnCWUfKwL-12" value="" style="rounded=0;whiteSpace=wrap;html=1;" vertex="1" parent="1">
          <mxGeometry x="335" y="430" width="300" height="110" as="geometry" />
        </mxCell>
        <mxCell id="Rez2ODJQ1QlfnCWUfKwL-13" value="外部应用" style="text;html=1;strokeColor=none;fillColor=none;align=center;verticalAlign=middle;whiteSpace=wrap;rounded=0;" vertex="1" parent="1">
          <mxGeometry x="335" y="430" width="60" height="30" as="geometry" />
        </mxCell>
        <mxCell id="Rez2ODJQ1QlfnCWUfKwL-14" value="千嘉蚁" style="rounded=0;whiteSpace=wrap;html=1;" vertex="1" parent="1">
          <mxGeometry x="475" y="485" width="70" height="35" as="geometry" />
        </mxCell>
        <mxCell id="Rez2ODJQ1QlfnCWUfKwL-26" value="" style="edgeStyle=orthogonalEdgeStyle;rounded=0;orthogonalLoop=1;jettySize=auto;html=1;" edge="1" parent="1" source="Rez2ODJQ1QlfnCWUfKwL-15" target="Rez2ODJQ1QlfnCWUfKwL-17">
          <mxGeometry relative="1" as="geometry" />
        </mxCell>
        <mxCell id="Rez2ODJQ1QlfnCWUfKwL-15" value="认证接口" style="rounded=0;whiteSpace=wrap;html=1;" vertex="1" parent="1">
          <mxGeometry x="110" y="500" width="110" height="25" as="geometry" />
        </mxCell>
        <mxCell id="Rez2ODJQ1QlfnCWUfKwL-17" value="用户权限缓存" style="rounded=0;whiteSpace=wrap;html=1;" vertex="1" parent="1">
          <mxGeometry x="110" y="439" width="110" height="30" as="geometry" />
        </mxCell>
        <mxCell id="Rez2ODJQ1QlfnCWUfKwL-18" value="CIS" style="rounded=0;whiteSpace=wrap;html=1;" vertex="1" parent="1">
          <mxGeometry x="365" y="485" width="70" height="35" as="geometry" />
        </mxCell>
        <mxCell id="Rez2ODJQ1QlfnCWUfKwL-19" value="隐患系统" style="rounded=0;whiteSpace=wrap;html=1;" vertex="1" parent="1">
          <mxGeometry x="555" y="335" width="70" height="35" as="geometry" />
        </mxCell>
        <mxCell id="Rez2ODJQ1QlfnCWUfKwL-20" value="设备管理" style="rounded=0;whiteSpace=wrap;html=1;" vertex="1" parent="1">
          <mxGeometry x="450" y="335" width="70" height="35" as="geometry" />
        </mxCell>
        <mxCell id="Rez2ODJQ1QlfnCWUfKwL-22" value="token" style="text;html=1;strokeColor=none;fillColor=none;align=center;verticalAlign=middle;whiteSpace=wrap;rounded=0;" vertex="1" parent="1">
          <mxGeometry x="158" y="474" width="60" height="30" as="geometry" />
        </mxCell>
        <mxCell id="Rez2ODJQ1QlfnCWUfKwL-30" value="token" style="text;html=1;strokeColor=none;fillColor=none;align=center;verticalAlign=middle;whiteSpace=wrap;rounded=0;" vertex="1" parent="1">
          <mxGeometry x="250" y="487.5" width="60" height="30" as="geometry" />
        </mxCell>
        <mxCell id="Rez2ODJQ1QlfnCWUfKwL-32" value="token" style="text;html=1;strokeColor=none;fillColor=none;align=center;verticalAlign=middle;whiteSpace=wrap;rounded=0;" vertex="1" parent="1">
          <mxGeometry x="230" y="380" width="60" height="30" as="geometry" />
        </mxCell>
      </root>
    </mxGraphModel>
  </diagram>
</mxfile>
